<svg width="1200" height="900" viewBox="0 0 1200 900" fill="none" xmlns="http://www.w3.org/2000/svg">
<rect width="1200" height="900" rx="28" fill="#F8FAFC"/>
<text x="70" y="78" font-family="Arial, sans-serif" font-size="31" font-weight="700" fill="#101828">Recommended operating model</text>
<rect x="70" y="132" width="260" height="160" rx="22" fill="#FFFFFF" stroke="#E6E8EC" stroke-width="2"/>
<text x="102" y="174" font-family="Arial, sans-serif" font-size="24" font-weight="700" fill="#101828">Website / App</text>
<text x="102" y="212" font-family="Arial, sans-serif" font-size="16" fill="#475467">Anonymous and known behavior capture</text>
<text x="102" y="238" font-family="Arial, sans-serif" font-size="16" fill="#475467">Rates, tracking, support, conversion</text>
<rect x="870" y="132" width="260" height="160" rx="22" fill="#FFFFFF" stroke="#E6E8EC" stroke-width="2"/>
<text x="902" y="174" font-family="Arial, sans-serif" font-size="24" font-weight="700" fill="#101828">Google</text>
<text x="902" y="212" font-family="Arial, sans-serif" font-size="16" fill="#475467">Anonymous acquisition and modeling</text>
<text x="902" y="238" font-family="Arial, sans-serif" font-size="16" fill="#475467">Enhanced conversions and</text>
<text x="902" y="264" font-family="Arial, sans-serif" font-size="16" fill="#475467">outcome linkage</text>
<rect x="70" y="640" width="260" height="160" rx="22" fill="#FFFFFF" stroke="#E6E8EC" stroke-width="2"/>
<text x="102" y="682" font-family="Arial, sans-serif" font-size="24" font-weight="700" fill="#101828">LINE</text>
<text x="102" y="720" font-family="Arial, sans-serif" font-size="16" fill="#475467">Outbound messaging, LIFF and</text>
<text x="102" y="746" font-family="Arial, sans-serif" font-size="16" fill="#475467">identity bridge</text>
<text x="102" y="772" font-family="Arial, sans-serif" font-size="16" fill="#475467">Service and profile enrichment</text>
<rect x="870" y="640" width="260" height="160" rx="22" fill="#FFFFFF" stroke="#E6E8EC" stroke-width="2"/>
<text x="902" y="682" font-family="Arial, sans-serif" font-size="24" font-weight="700" fill="#101828">Meta</text>
<text x="902" y="720" font-family="Arial, sans-serif" font-size="16" fill="#475467">Audience sync and paid social reach</text>
<text x="902" y="746" font-family="Arial, sans-serif" font-size="16" fill="#475467">Optional stronger event signal</text>
<text x="902" y="772" font-family="Arial, sans-serif" font-size="16" fill="#475467">via CAPI</text>
<rect x="70" y="375" width="260" height="170" rx="22" fill="#FFFFFF" fill-opacity="0.55" stroke="#D0D5DD" stroke-width="2" stroke-dasharray="8 8"/>
<text x="102" y="417" font-family="Arial, sans-serif" font-size="24" font-weight="700" fill="#101828">Optional bot server</text>
<text x="102" y="455" font-family="Arial, sans-serif" font-size="16" fill="#475467">Reads LINE chat events</text>
<text x="102" y="481" font-family="Arial, sans-serif" font-size="16" fill="#475467">Adds intent and shipment context</text>
<text x="102" y="507" font-family="Arial, sans-serif" font-size="16" fill="#475467">Supports agent assist and workflows</text>
<rect x="450" y="265" width="300" height="360" rx="28" fill="#FFFFFF" stroke="#D0D5DD" stroke-width="2"/>
<rect x="498" y="302" width="204" height="50" rx="16" fill="#FFF1F2"/>
<text x="600" y="334" text-anchor="middle" font-family="Arial, sans-serif" font-size="21" font-weight="700" fill="#D40511">CleverTap</text>
<text x="600" y="372" text-anchor="middle" font-family="Arial, sans-serif" font-size="16" fill="#475467">Profile, behavior, segmentation, activation</text>
<rect x="502" y="426" width="196" height="48" rx="14" fill="#F7F9FC" stroke="#E6E8EC"/>
<text x="600" y="456" text-anchor="middle" font-family="Arial, sans-serif" font-size="16" font-weight="700" fill="#101828">Owned-channel events</text>
<rect x="502" y="490" width="196" height="48" rx="14" fill="#F7F9FC" stroke="#E6E8EC"/>
<text x="600" y="520" text-anchor="middle" font-family="Arial, sans-serif" font-size="16" font-weight="700" fill="#101828">Profile progression</text>
<rect x="502" y="554" width="196" height="48" rx="14" fill="#F7F9FC" stroke="#E6E8EC"/>
<text x="600" y="584" text-anchor="middle" font-family="Arial, sans-serif" font-size="16" font-weight="700" fill="#101828">Audience activation</text>
<path d="M330 212C412 212 412 332 450 332" stroke="#B1B6C0" stroke-width="4" stroke-linecap="round"/>
<path d="M870 212C788 212 788 332 750 332" stroke="#B1B6C0" stroke-width="4" stroke-linecap="round"/>
<path d="M330 714C412 714 412 538 450 538" stroke="#B1B6C0" stroke-width="4" stroke-linecap="round"/>
<path d="M870 714C788 714 788 538 750 538" stroke="#B1B6C0" stroke-width="4" stroke-linecap="round"/>
<path d="M330 455H450" stroke="#B1B6C0" stroke-width="4" stroke-linecap="round" stroke-dasharray="8 8"/>
<circle cx="450" cy="332" r="9" fill="#D40511"/>
<circle cx="750" cy="332" r="9" fill="#D40511"/>
<circle cx="450" cy="538" r="9" fill="#D40511"/>
<circle cx="750" cy="538" r="9" fill="#D40511"/>
<text x="600" y="848" text-anchor="middle" font-family="Arial, sans-serif" font-size="18" font-weight="700" fill="#25324B">Keep Google and Meta native where they are strongest. Use CleverTap as the customer logic layer across them.</text>
</svg>