<svg width="1200" height="760" viewBox="0 0 1200 760" fill="none" xmlns="http://www.w3.org/2000/svg">
<rect width="1200" height="760" rx="28" fill="#F8FAFC"/>
<text x="70" y="76" font-family="Arial, sans-serif" font-size="30" font-weight="700" fill="#101828">CleverTap as DHL's customer logic layer</text>
<rect x="70" y="110" width="250" height="160" rx="22" fill="#FFFFFF" stroke="#E6E8EC" stroke-width="2"/>
<text x="98" y="150" font-family="Arial, sans-serif" font-size="24" font-weight="700" fill="#101828">Website / App</text>
<text x="98" y="188" font-family="Arial, sans-serif" font-size="16" fill="#475467">Anonymous browsing and service intent</text>
<text x="98" y="214" font-family="Arial, sans-serif" font-size="16" fill="#475467">Rates, tracking, pickup, support</text>
<rect x="880" y="110" width="250" height="160" rx="22" fill="#FFFFFF" stroke="#E6E8EC" stroke-width="2"/>
<text x="908" y="150" font-family="Arial, sans-serif" font-size="24" font-weight="700" fill="#101828">Google / Meta</text>
<text x="908" y="188" font-family="Arial, sans-serif" font-size="16" fill="#475467">Acquisition, retargeting and measurement</text>
<text x="908" y="214" font-family="Arial, sans-serif" font-size="16" fill="#475467">Optimization remains native</text>
<rect x="70" y="490" width="250" height="160" rx="22" fill="#FFFFFF" stroke="#E6E8EC" stroke-width="2"/>
<text x="98" y="530" font-family="Arial, sans-serif" font-size="24" font-weight="700" fill="#101828">LINE</text>
<text x="98" y="568" font-family="Arial, sans-serif" font-size="16" fill="#475467">Identity, messaging and service flows</text>
<text x="98" y="594" font-family="Arial, sans-serif" font-size="16" fill="#475467">LIFF and future support intelligence</text>
<rect x="880" y="490" width="250" height="160" rx="22" fill="#FFFFFF" stroke="#E6E8EC" stroke-width="2"/>
<text x="908" y="530" font-family="Arial, sans-serif" font-size="24" font-weight="700" fill="#101828">Loyalty / CRM</text>
<text x="908" y="568" font-family="Arial, sans-serif" font-size="16" fill="#475467">Retention, recurring use and future</text>
<text x="908" y="594" font-family="Arial, sans-serif" font-size="16" fill="#475467">relationship expansion</text>
<rect x="470" y="235" width="260" height="290" rx="28" fill="#FFFFFF" stroke="#D0D5DD" stroke-width="2"/>
<rect x="498" y="262" width="204" height="46" rx="16" fill="#FFF1F2"/>
<text x="600" y="292" text-anchor="middle" font-family="Arial, sans-serif" font-size="21" font-weight="700" fill="#D40511">CleverTap</text>
<text x="600" y="326" text-anchor="middle" font-family="Arial, sans-serif" font-size="15" fill="#475467">Central customer memory and action layer</text>
<rect x="515" y="368" width="170" height="44" rx="14" fill="#F7F9FC" stroke="#E6E8EC"/>
<text x="600" y="395" text-anchor="middle" font-family="Arial, sans-serif" font-size="16" font-weight="700" fill="#101828">Behavior memory</text>
<rect x="515" y="424" width="170" height="44" rx="14" fill="#F7F9FC" stroke="#E6E8EC"/>
<text x="600" y="451" text-anchor="middle" font-family="Arial, sans-serif" font-size="16" font-weight="700" fill="#101828">Segmentation</text>
<rect x="515" y="480" width="170" height="44" rx="14" fill="#F7F9FC" stroke="#E6E8EC"/>
<text x="600" y="507" text-anchor="middle" font-family="Arial, sans-serif" font-size="16" font-weight="700" fill="#101828">Activation</text>
<path d="M320 190C405 190 395 280 470 280" stroke="#B1B6C0" stroke-width="4" stroke-linecap="round"/>
<path d="M880 190C795 190 805 280 730 280" stroke="#B1B6C0" stroke-width="4" stroke-linecap="round"/>
<path d="M320 570C405 570 395 480 470 480" stroke="#B1B6C0" stroke-width="4" stroke-linecap="round"/>
<path d="M880 570C795 570 805 480 730 480" stroke="#B1B6C0" stroke-width="4" stroke-linecap="round"/>
<circle cx="470" cy="280" r="9" fill="#D40511"/>
<circle cx="730" cy="280" r="9" fill="#D40511"/>
<circle cx="470" cy="480" r="9" fill="#D40511"/>
<circle cx="730" cy="480" r="9" fill="#D40511"/>
<text x="600" y="692" text-anchor="middle" font-family="Arial, sans-serif" font-size="18" font-weight="700" fill="#25324B">Principle: learn early, enrich later, activate intelligently</text>
</svg>