<svg width="1200" height="920" viewBox="0 0 1200 920" fill="none" xmlns="http://www.w3.org/2000/svg">
<rect width="1200" height="920" rx="28" fill="#F8FAFC"/>
<text x="70" y="74" text-anchor="start" font-family="Arial, sans-serif" font-size="31" font-weight="700" fill="#101828"><tspan x="70" dy="0">Recommended operating model</tspan></text>
<rect x="70" y="130" width="270" height="170" rx="22" fill="#FFFFFF" stroke="#E4E7EC" stroke-width="2"/><text x="98" y="172" text-anchor="start" font-family="Arial, sans-serif" font-size="24" font-weight="700" fill="#101828"><tspan x="98" dy="0">Website / App</tspan></text><text x="98" y="210" text-anchor="start" font-family="Arial, sans-serif" font-size="16" font-weight="400" fill="#475467"><tspan x="98" dy="0">Anonymous and known behavior capture</tspan><tspan x="98" dy="24">Rates, tracking, support, conversion</tspan></text>
<rect x="860" y="130" width="270" height="170" rx="22" fill="#FFFFFF" stroke="#E4E7EC" stroke-width="2"/><text x="888" y="172" text-anchor="start" font-family="Arial, sans-serif" font-size="24" font-weight="700" fill="#101828"><tspan x="888" dy="0">Google</tspan></text><text x="888" y="210" text-anchor="start" font-family="Arial, sans-serif" font-size="16" font-weight="400" fill="#475467"><tspan x="888" dy="0">Anonymous acquisition and modeling</tspan><tspan x="888" dy="24">Enhanced conversions and outcome linkage</tspan></text>
<rect x="70" y="658" width="270" height="170" rx="22" fill="#FFFFFF" stroke="#E4E7EC" stroke-width="2"/><text x="98" y="700" text-anchor="start" font-family="Arial, sans-serif" font-size="24" font-weight="700" fill="#101828"><tspan x="98" dy="0">LINE</tspan></text><text x="98" y="738" text-anchor="start" font-family="Arial, sans-serif" font-size="16" font-weight="400" fill="#475467"><tspan x="98" dy="0">Outbound messaging, LIFF and identity bridge</tspan><tspan x="98" dy="24">Service and profile enrichment</tspan></text>
<rect x="860" y="658" width="270" height="170" rx="22" fill="#FFFFFF" stroke="#E4E7EC" stroke-width="2"/><text x="888" y="700" text-anchor="start" font-family="Arial, sans-serif" font-size="24" font-weight="700" fill="#101828"><tspan x="888" dy="0">Meta</tspan></text><text x="888" y="738" text-anchor="start" font-family="Arial, sans-serif" font-size="16" font-weight="400" fill="#475467"><tspan x="888" dy="0">Audience sync and paid social reach</tspan><tspan x="888" dy="24">Optional stronger event signal via CAPI</tspan></text>
<rect x="70" y="392" width="270" height="180" rx="22" fill="#FFFFFF" fill-opacity="0.55" stroke="#D0D5DD" stroke-width="2" stroke-dasharray="8 8"/>
<text x="98" y="434" text-anchor="start" font-family="Arial, sans-serif" font-size="24" font-weight="700" fill="#101828"><tspan x="98" dy="0">Optional bot server</tspan></text>
<text x="98" y="472" text-anchor="start" font-family="Arial, sans-serif" font-size="16" font-weight="400" fill="#475467"><tspan x="98" dy="0">Reads LINE chat events</tspan><tspan x="98" dy="26">Adds intent and shipment context</tspan><tspan x="98" dy="26">Supports agent assist and workflows</tspan></text>
<rect x="432" y="238" width="336" height="380" rx="30" fill="#FFFFFF" stroke="#D0D5DD" stroke-width="2"/>
<rect x="498" y="280" width="204" height="50" rx="16" fill="#FFF1F2"/>
<text x="600" y="312" text-anchor="middle" font-family="Arial, sans-serif" font-size="22" font-weight="700" fill="#D40511"><tspan x="600" dy="0">CleverTap</tspan></text>
<text x="600" y="350" text-anchor="middle" font-family="Arial, sans-serif" font-size="16" font-weight="400" fill="#475467"><tspan x="600" dy="0">Profile, behavior, segmentation, activation</tspan></text>
<rect x="500" y="410" width="200" height="50" rx="14" fill="#F7F9FC" stroke="#E4E7EC"/><text x="600" y="442" text-anchor="middle" font-family="Arial, sans-serif" font-size="16" font-weight="700" fill="#101828"><tspan x="600" dy="0">Owned-channel events</tspan></text>
<rect x="500" y="478" width="200" height="50" rx="14" fill="#F7F9FC" stroke="#E4E7EC"/><text x="600" y="510" text-anchor="middle" font-family="Arial, sans-serif" font-size="16" font-weight="700" fill="#101828"><tspan x="600" dy="0">Profile progression</tspan></text>
<rect x="500" y="546" width="200" height="50" rx="14" fill="#F7F9FC" stroke="#E4E7EC"/><text x="600" y="578" text-anchor="middle" font-family="Arial, sans-serif" font-size="16" font-weight="700" fill="#101828"><tspan x="600" dy="0">Audience activation</tspan></text>
<path d="M340 215C418 215 410 314 432 314" stroke="#B1B6C0" stroke-width="4" stroke-linecap="round"/>
<path d="M860 215C782 215 790 314 768 314" stroke="#B1B6C0" stroke-width="4" stroke-linecap="round"/>
<path d="M340 743C418 743 410 570 432 570" stroke="#B1B6C0" stroke-width="4" stroke-linecap="round"/>
<path d="M860 743C782 743 790 570 768 570" stroke="#B1B6C0" stroke-width="4" stroke-linecap="round"/>
<path d="M340 482H432" stroke="#B1B6C0" stroke-width="4" stroke-linecap="round" stroke-dasharray="8 8"/>
<circle cx="432" cy="314" r="8" fill="#D40511"/><circle cx="768" cy="314" r="8" fill="#D40511"/><circle cx="432" cy="570" r="8" fill="#D40511"/><circle cx="768" cy="570" r="8" fill="#D40511"/>
<text x="600" y="876" text-anchor="middle" font-family="Arial, sans-serif" font-size="18" font-weight="700" fill="#25324B"><tspan x="600" dy="0">Keep Google and Meta native where they are strongest. Use CleverTap as the customer logic layer across them.</tspan></text>
</svg>