<svg width="1200" height="900" viewBox="0 0 1200 900" fill="none" xmlns="http://www.w3.org/2000/svg">
<rect width="1200" height="900" rx="28" fill="#F8FAFC"/>
<text x="70" y="68" text-anchor="start" font-family="Arial, sans-serif" font-size="27" font-weight="700" fill="#101828"><tspan x="70" dy="0">LINE: from support inbox to identity, service and</tspan><tspan x="70" dy="34">engagement operating channel</tspan></text>
<rect x="70" y="150" width="300" height="650" rx="22" fill="#FFFFFF" stroke="#E4E7EC" stroke-width="2"/><text x="98" y="192" text-anchor="start" font-family="Arial, sans-serif" font-size="22" font-weight="700" fill="#101828"><tspan x="98" dy="0">1. Today</tspan></text><text x="98" y="230" text-anchor="start" font-family="Arial, sans-serif" font-size="16" font-weight="400" fill="#475467"></text>
<rect x="102" y="220" width="236" height="86" rx="18" fill="#EEF8F2" stroke="#CDE9D7"/><text x="220" y="254" text-anchor="middle" font-family="Arial, sans-serif" font-size="17" font-weight="700" fill="#00A341"><tspan x="220" dy="0">LINE Official Account</tspan><tspan x="220" dy="24">Customer messaging support</tspan></text>
<path d="M220 306V362" stroke="#B3B8C2" stroke-width="4" stroke-linecap="round"/>
<rect x="102" y="362" width="236" height="92" rx="18" fill="#F7F9FC" stroke="#E4E7EC"/><text x="220" y="398" text-anchor="middle" font-family="Arial, sans-serif" font-size="17" font-weight="700" fill="#101828"><tspan x="220" dy="0">Tracking / pickup / reschedule</tspan><tspan x="220" dy="24">Valuable intent, often trapped in chat</tspan></text>
<text x="102" y="520" text-anchor="start" font-family="Arial, sans-serif" font-size="16" font-weight="400" fill="#475467"><tspan x="102" dy="0">Strong reach.</tspan><tspan x="102" dy="32">Weak profile linkage.</tspan><tspan x="102" dy="32">Limited commercial memory.</tspan></text>

<rect x="410" y="150" width="380" height="650" rx="22" fill="#FFFFFF" stroke="#E4E7EC" stroke-width="2"/><text x="438" y="192" text-anchor="start" font-family="Arial, sans-serif" font-size="22" font-weight="700" fill="#101828"><tspan x="438" dy="0">2. No-heavy-middleware progression</tspan></text><text x="438" y="230" text-anchor="start" font-family="Arial, sans-serif" font-size="16" font-weight="400" fill="#475467"></text>
<rect x="442" y="220" width="316" height="74" rx="18" fill="#EEF8F2" stroke="#CDE9D7"/><text x="600" y="264" text-anchor="middle" font-family="Arial, sans-serif" font-size="17" font-weight="700" fill="#00A341"><tspan x="600" dy="0">LINE rich menu / message CTA</tspan></text>
<path d="M600 294V342" stroke="#00A341" stroke-width="4" stroke-linecap="round"/>
<rect x="442" y="342" width="316" height="74" rx="18" fill="#FFF8E1" stroke="#F2E3B0"/><text x="600" y="386" text-anchor="middle" font-family="Arial, sans-serif" font-size="17" font-weight="700" fill="#7A5B00"><tspan x="600" dy="0">LIFF or LINE Login flow</tspan></text>
<path d="M600 416V464" stroke="#7A5B00" stroke-width="4" stroke-linecap="round"/>
<rect x="442" y="464" width="316" height="82" rx="18" fill="#FFF1F2" stroke="#F0C7CB"/><text x="600" y="500" text-anchor="middle" font-family="Arial, sans-serif" font-size="17" font-weight="700" fill="#D40511"><tspan x="600" dy="0">Capture LINE UID + service intent</tspan><tspan x="600" dy="24">Tracking ID, shipment ref, flow completion</tspan></text>
<path d="M600 546V594" stroke="#D40511" stroke-width="4" stroke-linecap="round"/>
<rect x="442" y="594" width="316" height="74" rx="18" fill="#F7F9FC" stroke="#E4E7EC"/><text x="600" y="638" text-anchor="middle" font-family="Arial, sans-serif" font-size="17" font-weight="700" fill="#101828"><tspan x="600" dy="0">CleverTap profile enrichment</tspan></text>
<text x="442" y="724" text-anchor="start" font-family="Arial, sans-serif" font-size="16" font-weight="400" fill="#475467"><tspan x="442" dy="0">Best for structured journeys without full chat ingestion.</tspan></text>

<rect x="830" y="150" width="300" height="650" rx="22" fill="#FFFFFF" stroke="#E4E7EC" stroke-width="2"/><text x="858" y="192" text-anchor="start" font-family="Arial, sans-serif" font-size="22" font-weight="700" fill="#101828"><tspan x="858" dy="0">3. Smart bot server</tspan></text><text x="858" y="230" text-anchor="start" font-family="Arial, sans-serif" font-size="16" font-weight="400" fill="#475467"></text>
<rect x="862" y="220" width="236" height="86" rx="18" fill="#FFF8E1" stroke="#F2E3B0"/><text x="980" y="254" text-anchor="middle" font-family="Arial, sans-serif" font-size="17" font-weight="700" fill="#7A5B00"><tspan x="980" dy="0">Read inbound messages</tspan><tspan x="980" dy="24">Intent and context extraction</tspan></text>
<path d="M980 306V362" stroke="#B3B8C2" stroke-width="4" stroke-linecap="round"/>
<rect x="862" y="362" width="236" height="92" rx="18" fill="#FFF1F2" stroke="#F0C7CB"/><text x="980" y="398" text-anchor="middle" font-family="Arial, sans-serif" font-size="17" font-weight="700" fill="#D40511"><tspan x="980" dy="0">Update CleverTap + systems</tspan><tspan x="980" dy="24">Shipment and profile enrichment</tspan></text>
<path d="M980 454V510" stroke="#B3B8C2" stroke-width="4" stroke-linecap="round"/>
<rect x="862" y="510" width="236" height="92" rx="18" fill="#F7F9FC" stroke="#E4E7EC"/><text x="980" y="546" text-anchor="middle" font-family="Arial, sans-serif" font-size="17" font-weight="700" fill="#101828"><tspan x="980" dy="0">Agent assist + automation</tspan><tspan x="980" dy="24">True two-way service channel</tspan></text>
<text x="862" y="676" text-anchor="start" font-family="Arial, sans-serif" font-size="16" font-weight="400" fill="#475467"><tspan x="862" dy="0">Highest upside, but requires deliberate</tspan><tspan x="862" dy="24">middleware and identity design.</tspan></text>
</svg>